<?xml version="1.0" encoding="UTF-8" standalone="no" ?>
<!DOCTYPE svg PUBLIC "-//W3C//DTD SVG 1.1//EN" "http://www.w3.org/Graphics/SVG/1.1/DTD/svg11.dtd">
<svg xmlns="http://www.w3.org/2000/svg" xmlns:xlink="http://www.w3.org/1999/xlink" version="1.1" width="1280" height="1024" viewBox="0 0 1280 1024" xml:space="preserve">
<desc>Created with Fabric.js 3.6.3</desc>
<defs>
</defs>
<g transform="matrix(1.9692780337941629 0 0 1.9692780337941629 640.0153846153846 512.012312418764)" id="background-logo"  >
<rect style="stroke: none; stroke-width: 1; stroke-dasharray: none; stroke-linecap: butt; stroke-dashoffset: 0; stroke-linejoin: miter; stroke-miterlimit: 4; fill: rgb(255,255,255); fill-rule: nonzero; opacity: 1;"  paint-order="stroke"  x="-325" y="-260" rx="0" ry="0" width="650" height="520" />
</g>
<g transform="matrix(1.547931413948142 0 0 1.547931413948142 640.0153846153846 434.39495661049176)" id="logo-logo"  >
<g style=""  paint-order="stroke"   >
		<g transform="matrix(0.3147115817103374 0 0 -0.3147115817103374 -119.12321738897498 -0.27114577520245575)"  >
<radialGradient id="SVGID_56_173267" gradientUnits="userSpaceOnUse" gradientTransform="matrix(-575.498 -494.971 -494.971 575.498 1872.27 1695.98)"  cx="0" cy="0" r="1" fx="0" fy="0">
<stop offset="0%" style="stop-color:rgb(255,255,255);stop-opacity: 1"/>
<stop offset="19.403000000000002%" style="stop-color:rgb(255,255,255);stop-opacity: 1"/>
<stop offset="37.807771%" style="stop-color:rgb(0,173,239);stop-opacity: 1"/>
<stop offset="37.8109%" style="stop-color:rgb(0,173,239);stop-opacity: 1"/>
<stop offset="81.113689%" style="stop-color:rgb(16,15,13);stop-opacity: 1"/>
<stop offset="91.5423%" style="stop-color:rgb(16,15,13);stop-opacity: 1"/>
<stop offset="100%" style="stop-color:rgb(16,15,13);stop-opacity: 1"/>
</radialGradient>
<path style="stroke: none; stroke-width: 1; stroke-dasharray: none; stroke-linecap: butt; stroke-dashoffset: 0; stroke-linejoin: miter; stroke-miterlimit: 4; fill: url(#SVGID_56_173267); fill-rule: nonzero; opacity: 1;"  paint-order="stroke"  transform=" translate(-1244.65, -1461.62)" d="m 1287.82 1324.2 c -34.98 67.2 -54.79 143.5 -54.79 224.35 c 0 34.81 3.7 68.76 10.67 101.52 c -27.05 -55.92 -42.22 -118.65 -42.22 -184.92 c 0 -69.09 16.49 -134.31 45.72 -191.98 c 8.61 20.57 22.76 38.2 40.62 51.03" stroke-linecap="round" />
</g>
		<g transform="matrix(0.3147115817103374 0 0 -0.3147115817103374 -14.369893858780642 115.66388025316007)"  >
<radialGradient id="SVGID_57_173268" gradientUnits="userSpaceOnUse" gradientTransform="matrix(-575.498 -494.971 -494.971 575.498 1872.27 1695.98)"  cx="0" cy="0" r="1" fx="0" fy="0">
<stop offset="0%" style="stop-color:rgb(255,255,255);stop-opacity: 1"/>
<stop offset="19.403000000000002%" style="stop-color:rgb(255,255,255);stop-opacity: 1"/>
<stop offset="37.807771%" style="stop-color:rgb(0,173,239);stop-opacity: 1"/>
<stop offset="37.8109%" style="stop-color:rgb(0,173,239);stop-opacity: 1"/>
<stop offset="81.113689%" style="stop-color:rgb(16,15,13);stop-opacity: 1"/>
<stop offset="91.5423%" style="stop-color:rgb(16,15,13);stop-opacity: 1"/>
<stop offset="100%" style="stop-color:rgb(16,15,13);stop-opacity: 1"/>
</radialGradient>
<path style="stroke: none; stroke-width: 1; stroke-dasharray: none; stroke-linecap: butt; stroke-dashoffset: 0; stroke-linejoin: miter; stroke-miterlimit: 4; fill: url(#SVGID_57_173268); fill-rule: nonzero; opacity: 1;"  paint-order="stroke"  transform=" translate(-1577.505, -1093.2350000000001)" d="m 1389.42 1112.26 c 67.76 -45.65 149.39 -72.3 237.24 -72.3 c 48.65 0 95.39 8.2 138.93 23.25 c -14.86 -1.37 -29.9 -2.11 -45.11 -2.11 c -102.08 0 -196.91 31.57 -275.3 85.41 c -14.84 -16.13 -34.04 -28.18 -55.76 -34.25" stroke-linecap="round" />
</g>
		<g transform="matrix(0.3147115817103374 0 0 -0.3147115817103374 44.39164215815168 -33.20993965998332)"  >
<radialGradient id="SVGID_58_173269" gradientUnits="userSpaceOnUse" gradientTransform="matrix(-568.142 -488.644 -488.644 568.142 1867.55 1690.25)"  cx="0" cy="0" r="1" fx="0" fy="0">
<stop offset="0%" style="stop-color:rgb(255,255,255);stop-opacity: 1"/>
<stop offset="19.403000000000002%" style="stop-color:rgb(255,255,255);stop-opacity: 1"/>
<stop offset="37.807771%" style="stop-color:rgb(0,173,239);stop-opacity: 1"/>
<stop offset="37.8109%" style="stop-color:rgb(0,173,239);stop-opacity: 1"/>
<stop offset="81.113689%" style="stop-color:rgb(16,15,13);stop-opacity: 1"/>
<stop offset="91.5423%" style="stop-color:rgb(16,15,13);stop-opacity: 1"/>
<stop offset="100%" style="stop-color:rgb(16,15,13);stop-opacity: 1"/>
</radialGradient>
<path style="stroke: none; stroke-width: 1; stroke-dasharray: none; stroke-linecap: butt; stroke-dashoffset: 0; stroke-linejoin: miter; stroke-miterlimit: 4; fill: url(#SVGID_58_173269); fill-rule: nonzero; opacity: 1;"  paint-order="stroke"  transform=" translate(-1764.2205180549308, -1566.2834308968581)" d="m 1799.73 1351.24 c 45.85 0 83.02 -37.17 83.02 -83.03 c 0 -3.75 -0.33 -7.43 -0.82 -11.05 c 24.83 -4.03 50.29 -6.15 76.23 -6.15 c 12.36 0 24.6 0.51 36.73 1.45 c 79.56 102.02 46.93 229.1 18.94 258.34 c -40.21 42.01 -55.35 -4.76 -67.39 -137.13 c -0.61 -6.66 -10.34 -6.68 -10.94 -0.01 c -17.62 193.72 -41.87 204.15 -141.59 21.29 c -3.19 -5.84 -12.05 -2.1 -10.09 4.25 c 60.98 197.41 38.12 208.43 -107.37 86.23 c -5.15 -4.32 -12.08 2.6 -7.75 7.75 c 122.19 145.5 111.18 168.35 -86.23 107.37 c -6.35 -1.96 -10.09 6.91 -4.26 10.09 c 182.87 99.72 172.43 123.98 -21.29 141.59 c -6.67 0.61 -6.65 10.34 0.03 10.95 c 139.84 12.71 184.14 28.9 129.14 74.45 c -48.77 40.39 -114.91 53.84 -175.82 36.54 c -1.04 -0.29 -2.07 -0.59 -3.11 -0.89 c -15.27 -46.51 -23.57 -96.15 -23.57 -147.71 c 0 -178.36 98.92 -334.03 244.77 -415.09 c 14.47 24.37 40.97 40.76 71.37 40.76" stroke-linecap="round" />
</g>
		<g transform="matrix(0.3147115817103374 0 0 -0.3147115817103374 -21.36593232020141 9.716226270375046)"  >
<radialGradient id="SVGID_59_173270" gradientUnits="userSpaceOnUse" gradientTransform="matrix(-575.498 -494.971 -494.971 575.498 1872.27 1695.98)"  cx="0" cy="0" r="1" fx="0" fy="0">
<stop offset="0%" style="stop-color:rgb(255,255,255);stop-opacity: 1"/>
<stop offset="19.403000000000002%" style="stop-color:rgb(255,255,255);stop-opacity: 1"/>
<stop offset="37.807771%" style="stop-color:rgb(0,173,239);stop-opacity: 1"/>
<stop offset="37.8109%" style="stop-color:rgb(0,173,239);stop-opacity: 1"/>
<stop offset="81.113689%" style="stop-color:rgb(16,15,13);stop-opacity: 1"/>
<stop offset="91.5423%" style="stop-color:rgb(16,15,13);stop-opacity: 1"/>
<stop offset="100%" style="stop-color:rgb(16,15,13);stop-opacity: 1"/>
</radialGradient>
<path style="stroke: none; stroke-width: 1; stroke-dasharray: none; stroke-linecap: butt; stroke-dashoffset: 0; stroke-linejoin: miter; stroke-miterlimit: 4; fill: url(#SVGID_59_173270); fill-rule: nonzero; opacity: 1;"  paint-order="stroke"  transform=" translate(-1555.275, -1429.885)" d="m 1306.97 1581.91 c 0 24.83 15.84 45.91 37.94 53.84 c -2.35 21.39 -3.6 43.1 -3.6 65.11 c 0 28.84 2.13 57.18 6.14 84.93 c -30.09 -26.22 -56.45 -56.61 -78.19 -90.26 c -15.12 -46.3 -23.35 -95.69 -23.35 -146.98 c 0 -78.28 19.07 -152.19 52.78 -217.35 c 17.29 9.77 37.23 15.39 58.52 15.39 c 65.96 0 119.43 -53.47 119.43 -119.43 c 0 -26.48 -8.63 -50.92 -23.22 -70.69 c 76.13 -52.02 168.1 -82.49 267.06 -82.49 c 31.85 0 62.98 3.17 93.08 9.19 c 17.76 8.7 34.83 18.59 51.08 29.59 c -234.76 27.29 -428.07 192.41 -496.61 412.09 c -1.26 -0.09 -2.52 -0.2 -3.81 -0.2 c -31.62 0 -57.25 25.64 -57.25 57.26" stroke-linecap="round" />
</g>
		<g transform="matrix(0.3147115817103374 0 0 -0.3147115817103374 14.890415450737976 -11.194784776368408)"  >
<radialGradient id="SVGID_60_173271" gradientUnits="userSpaceOnUse" gradientTransform="matrix(-575.498 -494.971 -494.971 575.498 1872.27 1695.98)"  cx="0" cy="0" r="1" fx="0" fy="0">
<stop offset="0%" style="stop-color:rgb(255,255,255);stop-opacity: 1"/>
<stop offset="19.403000000000002%" style="stop-color:rgb(255,255,255);stop-opacity: 1"/>
<stop offset="37.807771%" style="stop-color:rgb(0,173,239);stop-opacity: 1"/>
<stop offset="37.8109%" style="stop-color:rgb(0,173,239);stop-opacity: 1"/>
<stop offset="81.113689%" style="stop-color:rgb(16,15,13);stop-opacity: 1"/>
<stop offset="91.5423%" style="stop-color:rgb(16,15,13);stop-opacity: 1"/>
<stop offset="100%" style="stop-color:rgb(16,15,13);stop-opacity: 1"/>
</radialGradient>
<path style="stroke: none; stroke-width: 1; stroke-dasharray: none; stroke-linecap: butt; stroke-dashoffset: 0; stroke-linejoin: miter; stroke-miterlimit: 4; fill: url(#SVGID_60_173271); fill-rule: nonzero; opacity: 1;"  paint-order="stroke"  transform=" translate(-1670.48, -1496.3300000000004)" d="m 1799.73 1185.19 c -45.85 0 -83.02 37.17 -83.02 83.02 c 0 10.86 2.14 21.2 5.93 30.71 c -150.09 83.18 -251.93 243.24 -251.93 426.65 c 0 49.76 7.53 97.78 21.45 143.02 c -47.51 -15.83 -91.28 -39.81 -129.67 -70.29 c -5.41 -31.7 -8.29 -64.24 -8.29 -97.44 c 0 -20.99 1.16 -41.7 3.34 -62.12 c 2.2 0.26 4.42 0.43 6.68 0.43 c 31.63 0 57.26 -25.64 57.26 -57.26 c 0 -25.84 -17.13 -47.67 -40.65 -54.79 c 68.89 -218.59 264.16 -381.62 499.73 -403.05 c 42.09 31.39 78.16 70.39 106.2 114.96 c -9.47 -0.55 -18.99 -0.91 -28.6 -0.91 c -26.85 0 -53.19 2.22 -78.88 6.42 c -10.2 -34.31 -41.93 -59.35 -79.55 -59.35" stroke-linecap="round" />
</g>
		<g transform="matrix(0.3147115817103374 0 0 -0.3147115817103374 -84.9760645585273 -37.8044446203869)"  >
<path style="stroke: none; stroke-width: 1; stroke-dasharray: none; stroke-linecap: butt; stroke-dashoffset: 0; stroke-linejoin: miter; stroke-miterlimit: 4; fill: rgb(35,31,32); fill-rule: nonzero; opacity: 1;"  paint-order="stroke"  transform=" translate(-1353.153006609642, -1580.8825280620601)" d="m 1387.63 1546.59 c -14.95 3.93 -27.83 14.09 -35.1 28.19 c 9.23 1.28 16.36 9.12 16.36 18.7 c 0 10.47 -8.49 18.96 -18.96 18.96 c -0.49 0 -0.96 -0.11 -1.44 -0.15 c 0.96 4.21 2.15 7.97 3.21 10.82 c 0.94 2.53 -1.52 5.08 -4.05 4.15 c -25.23 -9.3 -38.68 -38.26 -27.18 -64.53 c 7.81 -17.86 26.36 -29.28 45.83 -28.37 c 8.29 0.39 15.75 2.77 22.15 6.53 c 2.41 1.42 1.88 4.98 -0.82 5.7" stroke-linecap="round" />
</g>
		<g transform="matrix(0.3147115817103374 0 0 -0.3147115817103374 -74.09428427785986 -35.80365690820821)"  >
<path style="stroke: none; stroke-width: 1; stroke-dasharray: none; stroke-linecap: butt; stroke-dashoffset: 0; stroke-linejoin: miter; stroke-miterlimit: 4; fill: rgb(35,31,32); fill-rule: nonzero; opacity: 1;"  paint-order="stroke"  transform=" translate(-1387.73, -1574.525)" d="m 1396.46 1574.52 c 0 -4.82 -3.91 -8.73 -8.73 -8.73 c -4.82 0 -8.73 3.91 -8.73 8.73 c 0 4.83 3.91 8.74 8.73 8.74 c 4.82 0 8.73 -3.91 8.73 -8.74" stroke-linecap="round" />
</g>
		<g transform="matrix(0.3147115817103374 0 0 -0.3147115817103374 -85.84660467987851 73.26482691861145)"  >
<path style="stroke: none; stroke-width: 1; stroke-dasharray: none; stroke-linecap: butt; stroke-dashoffset: 0; stroke-linejoin: miter; stroke-miterlimit: 4; fill: rgb(35,31,32); fill-rule: nonzero; opacity: 1;"  paint-order="stroke"  transform=" translate(-1350.3868544501947, -1227.9585240092724)" d="m 1436.11 1177.76 c -0.04 0 -0.08 0 -0.12 0 c -5.64 0 -11.14 0.53 -16.55 1.32 c 0.85 2.71 1.43 5.53 1.43 8.52 c 0 15.92 -12.91 28.83 -28.83 28.83 c -10.78 0 -20.08 -6 -25.02 -14.77 c -23.45 18.9 -38.36 47.54 -38.36 80.64 c 0 14.72 3 28.73 8.37 41.49 c 1.47 3.51 -1.67 7.21 -5.34 6.24 c -35.92 -9.52 -64.19 -37.74 -73.91 -73.6 c 28.24 -51.55 67.53 -96.14 114.65 -130.7 c 28.12 3.77 52.68 18.71 69.08 40.2 c 3.52 4.61 0.4 11.75 -5.4 11.83" stroke-linecap="round" />
</g>
		<g transform="matrix(0.3147115817103374 0 0 -0.3147115817103374 -78.19497618754559 54.50755213729883)"  >
<path style="stroke: none; stroke-width: 1; stroke-dasharray: none; stroke-linecap: butt; stroke-dashoffset: 0; stroke-linejoin: miter; stroke-miterlimit: 4; fill: rgb(35,31,32); fill-rule: nonzero; opacity: 1;"  paint-order="stroke"  transform=" translate(-1374.7, -1287.56)" d="m 1374.7 1265.58 c 12.14 0 21.98 9.84 21.98 21.98 c 0 12.14 -9.84 21.98 -21.98 21.98 c -12.14 0 -21.98 -9.84 -21.98 -21.98 c 0 -12.14 9.84 -21.98 21.98 -21.98" stroke-linecap="round" />
</g>
		<g transform="matrix(0.3147115817103374 0 0 -0.3147115817103374 -59.05421778792288 66.91662980413736)"  >
<path style="stroke: none; stroke-width: 1; stroke-dasharray: none; stroke-linecap: butt; stroke-dashoffset: 0; stroke-linejoin: miter; stroke-miterlimit: 4; fill: rgb(35,31,32); fill-rule: nonzero; opacity: 1;"  paint-order="stroke"  transform=" translate(-1435.52, -1248.13)" d="m 1435.52 1236.66 c 6.34 0 11.47 5.13 11.47 11.47 c 0 6.34 -5.13 11.47 -11.47 11.47 c -6.33 0 -11.47 -5.13 -11.47 -11.47 c 0 -6.34 5.14 -11.47 11.47 -11.47" stroke-linecap="round" />
</g>
		<g transform="matrix(0.3147115817103374 0 0 -0.3147115817103374 52.611170013992876 63.598235533545505)"  >
<path style="stroke: none; stroke-width: 1; stroke-dasharray: none; stroke-linecap: butt; stroke-dashoffset: 0; stroke-linejoin: miter; stroke-miterlimit: 4; fill: rgb(35,31,32); fill-rule: nonzero; opacity: 1;"  paint-order="stroke"  transform=" translate(-1790.3381709584914, -1258.674239435224)" d="m 1849.8 1224.96 c -10.8 -2.02 -22.36 -1.87 -34.32 1.14 c -14.37 3.62 -27.25 11.25 -37.39 21.59 c 3.24 2.58 5.37 6.51 5.37 10.98 c 0 7.78 -6.31 14.08 -14.08 14.08 c -2.6 0 -5.01 -0.76 -7.1 -1.99 c -1.92 4.23 -3.51 8.64 -4.67 13.21 c -2.96 11.77 -3.14 23.15 -1.22 33.81 c 0.68 3.8 -4.01 6.25 -6.83 3.61 c -16.23 -15.18 -25.54 -37.64 -22.67 -62.2 c 3.86 -33.09 30.73 -59.95 63.82 -63.82 c 24.74 -2.89 47.37 6.59 62.55 23.05 c 2.5 2.72 0.17 7.22 -3.46 6.54" stroke-linecap="round" />
</g>
		<g transform="matrix(0.3147115817103374 0 0 -0.3147115817103374 57.42525927679867 47.23299392606435)"  >
<path style="stroke: none; stroke-width: 1; stroke-dasharray: none; stroke-linecap: butt; stroke-dashoffset: 0; stroke-linejoin: miter; stroke-miterlimit: 4; fill: rgb(35,31,32); fill-rule: nonzero; opacity: 1;"  paint-order="stroke"  transform=" translate(-1805.6350000000002, -1310.6750000000002)" d="m 1805.64 1290.67 c 11.05 0 20 8.96 20 20.01 c 0 11.05 -8.95 20 -20 20 c -11.05 0 -20.01 -8.95 -20.01 -20 c 0 -11.05 8.96 -20.01 20.01 -20.01" stroke-linecap="round" />
</g>
		<g transform="matrix(0.3147115817103374 0 0 -0.3147115817103374 69.05385222099562 64.52796889895598)"  >
<path style="stroke: none; stroke-width: 1; stroke-dasharray: none; stroke-linecap: butt; stroke-dashoffset: 0; stroke-linejoin: miter; stroke-miterlimit: 4; fill: rgb(35,31,32); fill-rule: nonzero; opacity: 1;"  paint-order="stroke"  transform=" translate(-1842.585, -1255.72)" d="m 1842.58 1243.23 c 6.9 0 12.5 5.59 12.5 12.49 c 0 6.9 -5.6 12.49 -12.5 12.49 c -6.9 0 -12.49 -5.59 -12.49 -12.49 c 0 -6.9 5.59 -12.49 12.49 -12.49" stroke-linecap="round" />
</g>
</g>
</g>
<g transform="matrix(1.9692780337941629 0 0 1.9692780337941629 639.1283440947913 740.8252179119154)" id="text-logo-path"  >
<path style="stroke: none; stroke-width: 0; stroke-dasharray: none; stroke-linecap: butt; stroke-dashoffset: 0; stroke-linejoin: miter; stroke-miterlimit: 4; fill: rgb(14,39,48); fill-rule: nonzero; opacity: 1;"  paint-order="stroke"  transform=" translate(-247.195, 15.754999999999999)" d="M 9.91 -25.2 L 0.44 -25.2 L 0.44 -31.51 L 27.44 -31.51 L 27.44 -25.2 L 18 -25.2 L 18 0 L 9.91 0 L 9.91 -25.2 Z M 38.69 0 L 30.59 0 L 30.59 -31.51 L 38.69 -31.51 L 38.69 -19.12 L 49.94 -19.12 L 49.94 -31.51 L 58.03 -31.51 L 58.03 0 L 49.94 0 L 49.94 -12.83 L 38.69 -12.83 L 38.69 0 Z M 78.29 0 L 62.07 0 L 62.07 -6.31 L 66.14 -6.31 L 66.14 -25.2 L 62.07 -25.2 L 62.07 -31.51 L 78.29 -31.51 L 78.29 -25.2 L 74.22 -25.2 L 74.22 -6.31 L 78.29 -6.31 L 78.29 0 Z M 90.44 0 L 82.33 0 L 82.33 -31.51 L 101.23 -31.51 Q 105.95 -31.51 108.09 -29.37 Q 110.24 -27.22 110.24 -22.5 L 110.24 -22.5 L 110.24 -18.46 Q 110.24 -14.72 109 -12.65 Q 107.75 -10.57 105.05 -9.91 L 105.05 -9.91 L 110.68 0 L 101.91 0 L 96.72 -9.45 L 90.44 -9.45 L 90.44 0 Z M 90.44 -25.2 L 90.44 -15.75 L 99.43 -15.75 Q 102.13 -15.75 102.13 -18.46 L 102.13 -18.46 L 102.13 -22.5 Q 102.13 -25.2 99.43 -25.2 L 99.43 -25.2 L 90.44 -25.2 Z M 132.28 0 L 114.72 0 L 114.72 -31.51 L 132.28 -31.51 Q 137.35 -31.51 139.99 -28.87 Q 142.62 -26.24 142.62 -21.16 L 142.62 -21.16 L 142.62 -10.35 Q 142.62 -5.27 139.99 -2.64 Q 137.35 0 132.28 0 L 132.28 0 Z M 122.83 -25.2 L 122.83 -6.31 L 130.47 -6.31 Q 134.52 -6.31 134.52 -10.35 L 134.52 -10.35 L 134.52 -21.16 Q 134.52 -25.2 130.47 -25.2 L 130.47 -25.2 L 122.83 -25.2 Z M 155.21 0 L 147.11 0 L 147.11 -31.51 L 166 -31.51 Q 170.73 -31.51 172.87 -29.37 Q 175.01 -27.22 175.01 -22.5 L 175.01 -22.5 L 175.01 -18.46 Q 175.01 -14.72 173.77 -12.65 Q 172.53 -10.57 169.83 -9.91 L 169.83 -9.91 L 175.45 0 L 166.68 0 L 161.5 -9.45 L 155.21 -9.45 L 155.21 0 Z M 155.21 -25.2 L 155.21 -15.75 L 164.2 -15.75 Q 166.9 -15.75 166.9 -18.46 L 166.9 -18.46 L 166.9 -22.5 Q 166.9 -25.2 164.2 -25.2 L 164.2 -25.2 L 155.21 -25.2 Z M 178.59 -8.55 L 178.59 -8.55 L 178.59 -22.94 Q 178.59 -27.66 180.73 -29.81 Q 182.86 -31.95 187.6 -31.95 L 187.6 -31.95 L 198.85 -31.95 Q 203.58 -31.95 205.71 -29.82 Q 207.84 -27.69 207.84 -22.94 L 207.84 -22.94 L 207.84 -8.55 Q 207.84 -3.82 205.71 -1.69 Q 203.58 0.44 198.85 0.44 L 198.85 0.44 L 187.6 0.44 Q 182.88 0.44 180.74 -1.69 Q 178.59 -3.82 178.59 -8.55 Z M 186.7 -22.94 L 186.7 -8.55 Q 186.7 -5.84 189.38 -5.84 L 189.38 -5.84 L 197.05 -5.84 Q 199.75 -5.84 199.73 -8.55 L 199.73 -8.55 L 199.73 -22.94 Q 199.73 -25.64 197.05 -25.64 L 197.05 -25.64 L 189.38 -25.64 Q 186.68 -25.64 186.7 -22.94 L 186.7 -22.94 Z M 211.44 -8.11 L 211.44 -8.11 L 211.44 -22.5 Q 211.44 -27.22 213.57 -29.37 Q 215.71 -31.51 220.45 -31.51 L 220.45 -31.51 L 236.65 -31.51 L 236.65 -25.2 L 222.23 -25.2 Q 219.53 -25.2 219.55 -22.5 L 219.55 -22.5 L 219.55 -8.11 Q 219.55 -7.08 220.16 -6.46 Q 220.76 -5.84 221.7 -5.84 Q 222.65 -5.84 223.77 -5.87 Q 224.89 -5.89 226.11 -5.93 Q 227.33 -5.98 228.57 -6.02 Q 229.81 -6.06 231.77 -6.21 Q 233.72 -6.35 236.65 -6.53 L 236.65 -6.53 L 236.65 -0.44 Q 226.85 0.44 220.3 0.44 L 220.3 0.44 Q 220.14 0.44 219.99 0.44 L 219.99 0.44 Q 215.57 0.44 213.51 -1.63 Q 211.44 -3.69 211.44 -8.11 Z M 248.33 0 L 240.23 0 L 240.23 -31.51 L 248.33 -31.51 L 248.33 -19.12 L 252.38 -19.12 L 259.39 -31.51 L 267.93 -31.51 L 259.12 -15.97 L 267.89 0 L 259.34 0 L 252.38 -12.83 L 248.33 -12.83 L 248.33 0 Z M 282.77 -21.16 L 282.77 -21.16 L 282.77 -22.5 Q 282.77 -27.22 284.91 -29.37 Q 287.05 -31.51 291.77 -31.51 L 291.77 -31.51 L 307.57 -31.51 L 307.57 -25.2 L 293.58 -25.2 Q 290.87 -25.2 290.87 -22.5 L 290.87 -22.5 L 290.87 -21.6 Q 290.87 -18.9 293.58 -18.9 L 293.58 -18.9 L 301.68 -18.9 Q 306.1 -18.9 308.17 -16.83 Q 310.23 -14.77 310.23 -10.35 L 310.23 -10.35 L 310.23 -8.11 Q 310.23 -3.69 308.16 -1.63 Q 306.08 0.44 301.68 0.44 L 301.68 0.44 Q 299.4 0.44 296.81 0.35 L 296.81 0.35 L 292.68 0.18 Q 288.08 -0.04 283.18 -0.44 L 283.18 -0.44 L 283.18 -6.53 Q 295.51 -5.84 299.88 -5.84 L 299.88 -5.84 Q 300.92 -5.84 301.52 -6.46 Q 302.12 -7.08 302.12 -8.11 L 302.12 -8.11 L 302.12 -12.15 L 291.77 -12.15 Q 287.05 -12.15 284.91 -14.29 Q 282.77 -16.44 282.77 -21.16 Z M 321.26 -8.33 L 309.33 -31.51 L 317.88 -31.51 L 325.31 -16.19 L 332.73 -31.51 L 341.28 -31.51 L 329.35 -8.33 L 329.35 0 L 321.26 0 L 321.26 -8.33 Z M 341.63 -21.16 L 341.63 -21.16 L 341.63 -22.5 Q 341.63 -27.22 343.77 -29.37 Q 345.92 -31.51 350.64 -31.51 L 350.64 -31.51 L 366.44 -31.51 L 366.44 -25.2 L 352.44 -25.2 Q 349.74 -25.2 349.74 -22.5 L 349.74 -22.5 L 349.74 -21.6 Q 349.74 -18.9 352.44 -18.9 L 352.44 -18.9 L 360.55 -18.9 Q 364.97 -18.9 367.03 -16.83 Q 369.1 -14.77 369.1 -10.35 L 369.1 -10.35 L 369.1 -8.11 Q 369.1 -3.69 367.02 -1.63 Q 364.94 0.44 360.55 0.44 L 360.55 0.44 Q 358.26 0.44 355.67 0.35 L 355.67 0.35 L 351.54 0.18 Q 346.95 -0.04 342.05 -0.44 L 342.05 -0.44 L 342.05 -6.53 Q 354.38 -5.84 358.75 -5.84 L 358.75 -5.84 Q 359.78 -5.84 360.38 -6.46 Q 360.99 -7.08 360.99 -8.11 L 360.99 -8.11 L 360.99 -12.15 L 350.64 -12.15 Q 345.92 -12.15 343.77 -14.29 Q 341.63 -16.44 341.63 -21.16 Z M 378.11 -25.2 L 368.64 -25.2 L 368.64 -31.51 L 395.64 -31.51 L 395.64 -25.2 L 386.19 -25.2 L 386.19 0 L 378.11 0 L 378.11 -25.2 Z M 423.76 0 L 398.78 0 L 398.78 -31.51 L 423.76 -31.51 L 423.76 -25.2 L 406.89 -25.2 L 406.89 -19.12 L 420.16 -19.12 L 420.16 -12.83 L 406.89 -12.83 L 406.89 -6.31 L 423.76 -6.31 L 423.76 0 Z M 435.45 0 L 427.35 0 L 427.35 -31.51 L 435.89 -31.51 L 444.9 -14.85 L 453.89 -31.51 L 462.44 -31.51 L 462.44 0 L 454.35 0 L 454.35 -17.56 L 448.04 -6.31 L 441.74 -6.31 L 435.45 -17.56 L 435.45 0 Z M 466.48 -21.16 L 466.48 -21.16 L 466.48 -22.5 Q 466.48 -27.22 468.62 -29.37 Q 470.76 -31.51 475.49 -31.51 L 475.49 -31.51 L 491.29 -31.51 L 491.29 -25.2 L 477.29 -25.2 Q 474.59 -25.2 474.59 -22.5 L 474.59 -22.5 L 474.59 -21.6 Q 474.59 -18.9 477.29 -18.9 L 477.29 -18.9 L 485.4 -18.9 Q 489.81 -18.9 491.88 -16.83 Q 493.95 -14.77 493.95 -10.35 L 493.95 -10.35 L 493.95 -8.11 Q 493.95 -3.69 491.87 -1.63 Q 489.79 0.44 485.4 0.44 L 485.4 0.44 Q 483.11 0.44 480.52 0.35 L 480.52 0.35 L 476.39 0.18 Q 471.8 -0.04 466.9 -0.44 L 466.9 -0.44 L 466.9 -6.53 Q 479.22 -5.84 483.6 -5.84 L 483.6 -5.84 Q 484.63 -5.84 485.23 -6.46 Q 485.84 -7.08 485.84 -8.11 L 485.84 -8.11 L 485.84 -12.15 L 475.49 -12.15 Q 470.76 -12.15 468.62 -14.29 Q 466.48 -16.44 466.48 -21.16 Z" stroke-linecap="round" />
</g>
</svg>